<mxfile host="Electron" modified="2024-01-25T04:34:50.147Z" agent="Mozilla/5.0 (Macintosh; Intel Mac OS X 10_15_7) AppleWebKit/537.36 (KHTML, like Gecko) draw.io/22.1.21 Chrome/120.0.6099.109 Electron/28.1.0 Safari/537.36" etag="Z363nDo1OS18Czdpbr4b" version="22.1.21" type="device">
  <diagram name="Page-1" id="qx0IvHgsozzOk11SNXmm">
    <mxGraphModel dx="1804" dy="674" grid="1" gridSize="10" guides="1" tooltips="1" connect="1" arrows="1" fold="1" page="1" pageScale="1" pageWidth="850" pageHeight="1100" math="0" shadow="0">
      <root>
        <mxCell id="0" />
        <mxCell id="1" parent="0" />
        <mxCell id="EkMg7Vydy6tQy5GRnnDm-25" value="" style="shape=cylinder3;whiteSpace=wrap;html=1;boundedLbl=1;backgroundOutline=1;size=15;" vertex="1" parent="1">
          <mxGeometry x="130" y="1029.6" width="214" height="160.4" as="geometry" />
        </mxCell>
        <mxCell id="EkMg7Vydy6tQy5GRnnDm-15" value="" style="rounded=0;whiteSpace=wrap;html=1;strokeWidth=1;" vertex="1" parent="1">
          <mxGeometry x="861.2" y="1040" width="278" height="150" as="geometry" />
        </mxCell>
        <mxCell id="EkMg7Vydy6tQy5GRnnDm-11" value="&lt;font style=&quot;font-size: 14px;&quot;&gt;AWS&lt;/font&gt;" style="points=[[0,0],[0.25,0],[0.5,0],[0.75,0],[1,0],[1,0.25],[1,0.5],[1,0.75],[1,1],[0.75,1],[0.5,1],[0.25,1],[0,1],[0,0.75],[0,0.5],[0,0.25]];outlineConnect=0;gradientColor=none;html=1;whiteSpace=wrap;fontSize=12;fontStyle=1;shape=mxgraph.aws4.group;grIcon=mxgraph.aws4.group_vpc;strokeColor=#248814;fillColor=none;verticalAlign=top;align=left;spacingLeft=30;dashed=0;" vertex="1" parent="1">
          <mxGeometry x="160" y="594.5" width="720" height="365.5" as="geometry" />
        </mxCell>
        <mxCell id="EkMg7Vydy6tQy5GRnnDm-34" style="edgeStyle=orthogonalEdgeStyle;rounded=0;orthogonalLoop=1;jettySize=auto;html=1;" edge="1" parent="1" source="EkMg7Vydy6tQy5GRnnDm-1" target="EkMg7Vydy6tQy5GRnnDm-4">
          <mxGeometry relative="1" as="geometry" />
        </mxCell>
        <mxCell id="EkMg7Vydy6tQy5GRnnDm-1" value="&lt;b&gt;&lt;font style=&quot;font-size: 14px;&quot;&gt;Kinesis Data Firehose&lt;br&gt;Delivery Stream&lt;br&gt;&lt;/font&gt;&lt;/b&gt;" style="sketch=0;points=[[0,0,0],[0.25,0,0],[0.5,0,0],[0.75,0,0],[1,0,0],[0,1,0],[0.25,1,0],[0.5,1,0],[0.75,1,0],[1,1,0],[0,0.25,0],[0,0.5,0],[0,0.75,0],[1,0.25,0],[1,0.5,0],[1,0.75,0]];outlineConnect=0;fontColor=#232F3E;fillColor=#8C4FFF;strokeColor=#ffffff;dashed=0;verticalLabelPosition=bottom;verticalAlign=top;align=center;html=1;fontSize=12;fontStyle=0;aspect=fixed;shape=mxgraph.aws4.resourceIcon;resIcon=mxgraph.aws4.kinesis_data_firehose;" vertex="1" parent="1">
          <mxGeometry x="480" y="800" width="78" height="78" as="geometry" />
        </mxCell>
        <mxCell id="EkMg7Vydy6tQy5GRnnDm-32" style="edgeStyle=orthogonalEdgeStyle;rounded=0;orthogonalLoop=1;jettySize=auto;html=1;exitX=1;exitY=0.5;exitDx=0;exitDy=0;exitPerimeter=0;" edge="1" parent="1" source="EkMg7Vydy6tQy5GRnnDm-2" target="EkMg7Vydy6tQy5GRnnDm-1">
          <mxGeometry relative="1" as="geometry" />
        </mxCell>
        <mxCell id="EkMg7Vydy6tQy5GRnnDm-2" value="&lt;font style=&quot;font-size: 14px;&quot;&gt;&lt;b&gt;Kinesis Data Streams&lt;br&gt;Source Stream&lt;br&gt;&lt;/b&gt;&lt;/font&gt;" style="sketch=0;points=[[0,0,0],[0.25,0,0],[0.5,0,0],[0.75,0,0],[1,0,0],[0,1,0],[0.25,1,0],[0.5,1,0],[0.75,1,0],[1,1,0],[0,0.25,0],[0,0.5,0],[0,0.75,0],[1,0.25,0],[1,0.5,0],[1,0.75,0]];outlineConnect=0;fontColor=#232F3E;fillColor=#8C4FFF;strokeColor=#ffffff;dashed=0;verticalLabelPosition=bottom;verticalAlign=top;align=center;html=1;fontSize=12;fontStyle=0;aspect=fixed;shape=mxgraph.aws4.resourceIcon;resIcon=mxgraph.aws4.kinesis_data_streams;" vertex="1" parent="1">
          <mxGeometry x="240" y="800" width="78" height="78" as="geometry" />
        </mxCell>
        <mxCell id="EkMg7Vydy6tQy5GRnnDm-3" value="" style="sketch=0;points=[[0,0,0],[0.25,0,0],[0.5,0,0],[0.75,0,0],[1,0,0],[0,1,0],[0.25,1,0],[0.5,1,0],[0.75,1,0],[1,1,0],[0,0.25,0],[0,0.5,0],[0,0.75,0],[1,0.25,0],[1,0.5,0],[1,0.75,0]];outlineConnect=0;fontColor=#232F3E;fillColor=#ED7100;strokeColor=#ffffff;dashed=0;verticalLabelPosition=bottom;verticalAlign=top;align=center;html=1;fontSize=12;fontStyle=0;aspect=fixed;shape=mxgraph.aws4.resourceIcon;resIcon=mxgraph.aws4.lambda;" vertex="1" parent="1">
          <mxGeometry x="560" y="640" width="78" height="78" as="geometry" />
        </mxCell>
        <mxCell id="EkMg7Vydy6tQy5GRnnDm-4" value="&lt;font style=&quot;font-size: 14px;&quot;&gt;&lt;b&gt;S3 Bucket&lt;br&gt;Destination&lt;/b&gt;&lt;/font&gt;" style="sketch=0;points=[[0,0,0],[0.25,0,0],[0.5,0,0],[0.75,0,0],[1,0,0],[0,1,0],[0.25,1,0],[0.5,1,0],[0.75,1,0],[1,1,0],[0,0.25,0],[0,0.5,0],[0,0.75,0],[1,0.25,0],[1,0.5,0],[1,0.75,0]];outlineConnect=0;fontColor=#232F3E;fillColor=#7AA116;strokeColor=#ffffff;dashed=0;verticalLabelPosition=bottom;verticalAlign=top;align=center;html=1;fontSize=12;fontStyle=0;aspect=fixed;shape=mxgraph.aws4.resourceIcon;resIcon=mxgraph.aws4.s3;" vertex="1" parent="1">
          <mxGeometry x="720" y="800" width="78" height="78" as="geometry" />
        </mxCell>
        <mxCell id="EkMg7Vydy6tQy5GRnnDm-5" value="&lt;b&gt;&lt;font style=&quot;font-size: 14px;&quot;&gt;SQS Queue&lt;br&gt;&lt;/font&gt;&lt;/b&gt;&lt;b style=&quot;border-color: var(--border-color);&quot;&gt;&lt;font style=&quot;border-color: var(--border-color); font-size: 14px;&quot;&gt;Snowflake Auto-Ingest&lt;/font&gt;&lt;/b&gt;&lt;b&gt;&lt;font style=&quot;font-size: 14px;&quot;&gt;&lt;br&gt;&lt;/font&gt;&lt;/b&gt;" style="outlineConnect=0;dashed=0;verticalLabelPosition=bottom;verticalAlign=top;align=center;html=1;shape=mxgraph.aws3.sqs;fillColor=#D9A741;gradientColor=none;" vertex="1" parent="1">
          <mxGeometry x="917.33" y="1060" width="64.16" height="78" as="geometry" />
        </mxCell>
        <mxCell id="EkMg7Vydy6tQy5GRnnDm-9" value="&lt;b&gt;&lt;font style=&quot;font-size: 14px;&quot;&gt;TABLE&lt;/font&gt;&lt;/b&gt;" style="shadow=0;dashed=0;html=1;strokeColor=none;fillColor=#4495D1;labelPosition=center;verticalLabelPosition=bottom;verticalAlign=top;align=center;outlineConnect=0;shape=mxgraph.veeam.table;" vertex="1" parent="1">
          <mxGeometry x="191" y="1079.2" width="92" height="70.8" as="geometry" />
        </mxCell>
        <mxCell id="EkMg7Vydy6tQy5GRnnDm-29" style="edgeStyle=orthogonalEdgeStyle;rounded=0;orthogonalLoop=1;jettySize=auto;html=1;" edge="1" parent="1">
          <mxGeometry relative="1" as="geometry">
            <mxPoint x="-50" y="840" as="targetPoint" />
            <mxPoint x="-160" y="840" as="sourcePoint" />
          </mxGeometry>
        </mxCell>
        <mxCell id="EkMg7Vydy6tQy5GRnnDm-10" value="&lt;font style=&quot;font-size: 14px;&quot;&gt;&lt;b&gt;Kinesis Client&lt;br&gt;Services / Users&lt;/b&gt;&lt;/font&gt;" style="points=[[0.35,0,0],[0.98,0.51,0],[1,0.71,0],[0.67,1,0],[0,0.795,0],[0,0.65,0]];verticalLabelPosition=bottom;sketch=0;html=1;verticalAlign=top;aspect=fixed;align=center;pointerEvents=1;shape=mxgraph.cisco19.user;fillColor=#005073;strokeColor=none;" vertex="1" parent="1">
          <mxGeometry x="-250" y="805" width="78" height="78" as="geometry" />
        </mxCell>
        <mxCell id="EkMg7Vydy6tQy5GRnnDm-31" style="edgeStyle=orthogonalEdgeStyle;rounded=0;orthogonalLoop=1;jettySize=auto;html=1;" edge="1" parent="1">
          <mxGeometry relative="1" as="geometry">
            <mxPoint x="220" y="839.5" as="targetPoint" />
            <mxPoint x="60" y="840" as="sourcePoint" />
          </mxGeometry>
        </mxCell>
        <mxCell id="EkMg7Vydy6tQy5GRnnDm-12" value="&lt;b&gt;&lt;font style=&quot;font-size: 14px;&quot;&gt;Internet&lt;/font&gt;&lt;/b&gt;" style="sketch=0;outlineConnect=0;fontColor=#232F3E;gradientColor=none;strokeColor=#232F3E;fillColor=#ffffff;dashed=0;verticalLabelPosition=bottom;verticalAlign=top;align=center;html=1;fontSize=12;fontStyle=0;aspect=fixed;shape=mxgraph.aws4.resourceIcon;resIcon=mxgraph.aws4.internet;" vertex="1" parent="1">
          <mxGeometry x="-35" y="800" width="80" height="80" as="geometry" />
        </mxCell>
        <mxCell id="EkMg7Vydy6tQy5GRnnDm-36" style="edgeStyle=orthogonalEdgeStyle;rounded=0;orthogonalLoop=1;jettySize=auto;html=1;entryX=0.5;entryY=0;entryDx=0;entryDy=0;" edge="1" parent="1" source="EkMg7Vydy6tQy5GRnnDm-13" target="EkMg7Vydy6tQy5GRnnDm-15">
          <mxGeometry relative="1" as="geometry" />
        </mxCell>
        <mxCell id="EkMg7Vydy6tQy5GRnnDm-13" value="&lt;b&gt;&lt;font style=&quot;font-size: 14px;&quot;&gt;Data Files&lt;/font&gt;&lt;/b&gt;" style="sketch=0;html=1;aspect=fixed;strokeColor=none;shadow=0;fillColor=#3B8DF1;verticalAlign=top;labelPosition=center;verticalLabelPosition=bottom;shape=mxgraph.gcp2.files" vertex="1" parent="1">
          <mxGeometry x="960" y="800" width="80.41" height="78" as="geometry" />
        </mxCell>
        <mxCell id="EkMg7Vydy6tQy5GRnnDm-14" value="&lt;b&gt;&lt;font style=&quot;font-size: 14px;&quot;&gt;External (S3)&lt;br&gt;Stage&lt;/font&gt;&lt;/b&gt;" style="rounded=1;whiteSpace=wrap;html=1;strokeColor=#FF8000;strokeWidth=3;" vertex="1" parent="1">
          <mxGeometry x="1009.2" y="1069" width="120" height="60" as="geometry" />
        </mxCell>
        <mxCell id="EkMg7Vydy6tQy5GRnnDm-38" style="edgeStyle=orthogonalEdgeStyle;rounded=0;orthogonalLoop=1;jettySize=auto;html=1;exitX=0;exitY=0.5;exitDx=0;exitDy=0;exitPerimeter=0;" edge="1" parent="1" source="EkMg7Vydy6tQy5GRnnDm-16">
          <mxGeometry relative="1" as="geometry">
            <mxPoint x="550" y="1115" as="targetPoint" />
          </mxGeometry>
        </mxCell>
        <mxCell id="EkMg7Vydy6tQy5GRnnDm-16" value="&lt;b&gt;&lt;font color=&quot;#000000&quot; style=&quot;font-size: 14px;&quot;&gt;Auto-Ingest &lt;br&gt;SQS Queue&lt;/font&gt;&lt;/b&gt;" style="outlineConnect=0;dashed=0;verticalLabelPosition=bottom;verticalAlign=top;align=center;html=1;shape=mxgraph.aws3.queue;fillColor=#1ba1e2;fontColor=#ffffff;strokeColor=#006EAF;" vertex="1" parent="1">
          <mxGeometry x="660" y="1080" width="92" height="70" as="geometry" />
        </mxCell>
        <mxCell id="EkMg7Vydy6tQy5GRnnDm-18" value="" style="group" vertex="1" connectable="0" parent="1">
          <mxGeometry x="450" y="1090" width="96.2962962962963" height="80" as="geometry" />
        </mxCell>
        <mxCell id="EkMg7Vydy6tQy5GRnnDm-6" value="" style="sketch=0;outlineConnect=0;fillColor=#1ba1e2;strokeColor=#006EAF;dashed=0;verticalLabelPosition=bottom;verticalAlign=top;align=center;html=1;fontSize=12;fontStyle=0;aspect=fixed;pointerEvents=1;shape=mxgraph.aws4.iot_analytics_pipeline;fontColor=#ffffff;" vertex="1" parent="EkMg7Vydy6tQy5GRnnDm-18">
          <mxGeometry width="96.2962962962963" height="51.85185185185186" as="geometry" />
        </mxCell>
        <mxCell id="EkMg7Vydy6tQy5GRnnDm-7" value="&lt;b&gt;&lt;font style=&quot;font-size: 14px;&quot;&gt;Pipe&lt;/font&gt;&lt;/b&gt;" style="text;html=1;strokeColor=none;fillColor=none;align=center;verticalAlign=middle;whiteSpace=wrap;rounded=0;" vertex="1" parent="EkMg7Vydy6tQy5GRnnDm-18">
          <mxGeometry x="11.539999999999964" y="52.86999999999989" width="68.46" height="27.13" as="geometry" />
        </mxCell>
        <mxCell id="EkMg7Vydy6tQy5GRnnDm-24" value="" style="group" vertex="1" connectable="0" parent="1">
          <mxGeometry x="410" y="1010" width="215" height="70" as="geometry" />
        </mxCell>
        <mxCell id="EkMg7Vydy6tQy5GRnnDm-19" value="" style="html=1;verticalLabelPosition=bottom;align=center;labelBackgroundColor=#ffffff;verticalAlign=top;strokeWidth=2;strokeColor=#0080F0;shadow=0;dashed=0;shape=mxgraph.ios7.icons.settings;" vertex="1" parent="EkMg7Vydy6tQy5GRnnDm-24">
          <mxGeometry width="30" height="30" as="geometry" />
        </mxCell>
        <mxCell id="EkMg7Vydy6tQy5GRnnDm-20" value="" style="html=1;verticalLabelPosition=bottom;align=center;labelBackgroundColor=#ffffff;verticalAlign=top;strokeWidth=2;strokeColor=#0080F0;shadow=0;dashed=0;shape=mxgraph.ios7.icons.settings;" vertex="1" parent="EkMg7Vydy6tQy5GRnnDm-24">
          <mxGeometry x="30" y="20" width="30" height="30" as="geometry" />
        </mxCell>
        <mxCell id="EkMg7Vydy6tQy5GRnnDm-21" value="" style="html=1;verticalLabelPosition=bottom;align=center;labelBackgroundColor=#ffffff;verticalAlign=top;strokeWidth=2;strokeColor=#0080F0;shadow=0;dashed=0;shape=mxgraph.ios7.icons.settings;" vertex="1" parent="EkMg7Vydy6tQy5GRnnDm-24">
          <mxGeometry y="40" width="30" height="30" as="geometry" />
        </mxCell>
        <mxCell id="EkMg7Vydy6tQy5GRnnDm-22" value="&lt;font style=&quot;font-size: 14px;&quot;&gt;&lt;b&gt;&lt;i&gt;Snowflake-provided&lt;br&gt;Compute services&lt;/i&gt;&lt;/b&gt;&lt;/font&gt;" style="text;html=1;align=center;verticalAlign=middle;resizable=0;points=[];autosize=1;strokeColor=none;fillColor=none;" vertex="1" parent="EkMg7Vydy6tQy5GRnnDm-24">
          <mxGeometry x="55" y="10" width="160" height="50" as="geometry" />
        </mxCell>
        <mxCell id="EkMg7Vydy6tQy5GRnnDm-26" value="" style="shape=mxgraph.signs.nature.snowflake;html=1;pointerEvents=1;fillColor=#b1ddf0;strokeColor=#10739e;verticalLabelPosition=bottom;verticalAlign=top;align=center;" vertex="1" parent="1">
          <mxGeometry x="140" y="1060" width="29.3" height="33" as="geometry" />
        </mxCell>
        <mxCell id="EkMg7Vydy6tQy5GRnnDm-28" value="&lt;font style=&quot;font-size: 14px;&quot;&gt;&lt;b&gt;Snowflake Database&lt;/b&gt;&lt;/font&gt;" style="text;html=1;align=center;verticalAlign=middle;resizable=0;points=[];autosize=1;strokeColor=none;fillColor=none;" vertex="1" parent="1">
          <mxGeometry x="160" y="1198" width="160" height="30" as="geometry" />
        </mxCell>
        <mxCell id="EkMg7Vydy6tQy5GRnnDm-35" style="edgeStyle=orthogonalEdgeStyle;rounded=0;orthogonalLoop=1;jettySize=auto;html=1;entryX=-0.012;entryY=0.5;entryDx=0;entryDy=0;entryPerimeter=0;" edge="1" parent="1" source="EkMg7Vydy6tQy5GRnnDm-4" target="EkMg7Vydy6tQy5GRnnDm-13">
          <mxGeometry relative="1" as="geometry" />
        </mxCell>
        <mxCell id="EkMg7Vydy6tQy5GRnnDm-37" style="edgeStyle=orthogonalEdgeStyle;rounded=0;orthogonalLoop=1;jettySize=auto;html=1;exitX=0;exitY=0.5;exitDx=0;exitDy=0;entryX=1;entryY=0.5;entryDx=0;entryDy=0;entryPerimeter=0;" edge="1" parent="1" source="EkMg7Vydy6tQy5GRnnDm-15" target="EkMg7Vydy6tQy5GRnnDm-16">
          <mxGeometry relative="1" as="geometry" />
        </mxCell>
        <mxCell id="EkMg7Vydy6tQy5GRnnDm-39" style="edgeStyle=orthogonalEdgeStyle;rounded=0;orthogonalLoop=1;jettySize=auto;html=1;entryX=0.701;entryY=0.538;entryDx=0;entryDy=0;entryPerimeter=0;" edge="1" parent="1" source="EkMg7Vydy6tQy5GRnnDm-6" target="EkMg7Vydy6tQy5GRnnDm-25">
          <mxGeometry relative="1" as="geometry" />
        </mxCell>
        <mxCell id="EkMg7Vydy6tQy5GRnnDm-40" style="edgeStyle=orthogonalEdgeStyle;rounded=0;orthogonalLoop=1;jettySize=auto;html=1;exitX=0.5;exitY=0;exitDx=0;exitDy=0;exitPerimeter=0;entryX=0;entryY=0.5;entryDx=0;entryDy=0;entryPerimeter=0;" edge="1" parent="1" source="EkMg7Vydy6tQy5GRnnDm-1" target="EkMg7Vydy6tQy5GRnnDm-3">
          <mxGeometry relative="1" as="geometry" />
        </mxCell>
        <mxCell id="EkMg7Vydy6tQy5GRnnDm-41" value="&lt;b style=&quot;border-color: var(--border-color); color: rgb(35, 47, 62);&quot;&gt;&lt;font style=&quot;border-color: var(--border-color); font-size: 14px;&quot;&gt;Transformer&lt;br style=&quot;border-color: var(--border-color);&quot;&gt;Lambda Function&lt;/font&gt;&lt;/b&gt;" style="text;html=1;align=center;verticalAlign=middle;resizable=0;points=[];autosize=1;strokeColor=none;fillColor=none;" vertex="1" parent="1">
          <mxGeometry x="638" y="654" width="140" height="50" as="geometry" />
        </mxCell>
        <mxCell id="EkMg7Vydy6tQy5GRnnDm-43" style="edgeStyle=orthogonalEdgeStyle;rounded=0;orthogonalLoop=1;jettySize=auto;html=1;entryX=1;entryY=0.25;entryDx=0;entryDy=0;entryPerimeter=0;exitX=0.25;exitY=1;exitDx=0;exitDy=0;exitPerimeter=0;" edge="1" parent="1" source="EkMg7Vydy6tQy5GRnnDm-3" target="EkMg7Vydy6tQy5GRnnDm-1">
          <mxGeometry relative="1" as="geometry" />
        </mxCell>
      </root>
    </mxGraphModel>
  </diagram>
</mxfile>
